# xmcd
#
# Track frame offsets:
# 150
# 10500
# 20321
# 25464
# 37653
# 48104
# 59766
# 71926
# 81527
# 92196
# 101945
# 117835
# 124391
# 134624
# 142654
# 152746
# 164191
# 178424
# 188326
# 200579
#
# Disc length: 2810 seconds
#
#
# Revision: 0
# Processed by: cddbd v1.5.1PL0 Copyright (c) Steve Scherf et al.
# Submitted via: FreeRIP 2.92 
#
DISCID=210af814
DTITLE=The Delta Rhythm Boys - I Dreamt I Dwelt in Harlem (The Road To Doo Wop)
DYEAR=1941
DGENRE=
TTITLE0=Little Lize (I Love You)
TTITLE1=Kepp On To Galilee
TTITLE2=Wait Till I Put On My Crown
TTITLE3=The Railroad Song
TTITLE4=Ezekiel Saw De Wheel
TTITLE5=Bugle Woogie
TTITLE6=Do You Care
TTITLE7=Conversation At Midnight
TTITLE8=It Was Wonderful Then
TTITLE9=La Cucaracha
TTITLE10=Dry Bones
TTITLE11=Certainly Lord
TTITLE12=Mighty Day
TTITLE13=Scandalize My Name
TTITLE14=Watermelon On The Vine
TTITLE15=Gimme Some Skin
TTITLE16=It's So Peaceful In The Country
TTITLE17=Blues My Naughty Sweetie Gives To Me
TTITLE18=Georgia On My Mind
TTITLE19=I Dreamt I Dwelt In Harlem
EXTD=
EXTT0=
EXTT1=
EXTT2=
EXTT3=
EXTT4=
EXTT5=
EXTT6=
EXTT7=
EXTT8=
EXTT9=
EXTT10=
EXTT11=
EXTT12=
EXTT13=
EXTT14=
EXTT15=
EXTT16=
EXTT17=
EXTT18=
EXTT19=
PLAYORDER=
